# This file uses centimeters as units for non-parametric coordinates.

mtllib Rocket.mtl
g default1
v 0.809017 5.734100 -0.587785
v 0.309017 5.734100 -0.951057
v -0.309017 5.734100 -0.951057
v -0.809017 5.734100 -0.587785
v -1.000000 5.734100 0.000000
v -0.809017 5.736747 0.587785
v -0.309017 5.736747 0.951057
v 0.309017 5.734100 0.951057
v 0.809017 5.734100 0.587785
v 1.000000 5.734100 0.000000
v 0.000000 7.731453 0.000000
v 0.809017 -5.736747 -0.587785
v 0.309017 -5.736747 -0.951057
v -0.309017 -5.736747 -0.951057
v -0.809017 -5.736747 -0.587785
v -1.000000 -5.736747 0.000000
v -0.809017 -5.736747 0.587785
v -0.309017 -5.736747 0.951057
v 0.309017 -5.736747 0.951057
v 0.809017 -5.736747 0.587785
v 1.000000 -5.736747 0.000000
v 0.809017 -3.442049 -0.587785
v 0.309017 -3.442049 -0.951057
v -0.309017 -3.442049 -0.951057
v -0.809017 -3.442049 -0.587785
v -1.000000 -3.442049 0.000000
v -0.809017 -3.442049 0.587785
v -0.309017 -3.442049 0.951057
v 0.309017 -3.442049 0.951057
v 0.809017 -3.442049 0.587785
v 1.000000 -3.442049 0.000000
v 0.809017 -1.147349 -0.587785
v 0.309017 -1.147349 -0.951057
v -0.309017 -1.147349 -0.951057
v -0.809017 -1.147349 -0.587785
v -1.000000 -1.147349 0.000000
v -0.809017 -1.147349 0.587785
v -0.309017 -1.147349 0.951057
v 0.309017 -1.147349 0.951057
v 0.809017 -1.147349 0.587785
v 1.000000 -1.147349 0.000000
v 0.809017 1.147349 -0.587785
v 0.309017 1.147349 -0.951057
v -0.309017 1.147349 -0.951057
v -0.809017 1.147349 -0.587785
v -1.000000 1.147349 0.000000
v -0.809017 1.147349 0.587785
v -0.309017 1.147349 0.951057
v 0.309017 1.147349 0.951057
v 0.809017 1.147349 0.587785
v 1.000000 1.147349 0.000000
v 0.809017 3.442049 -0.587785
v 0.309017 3.442049 -0.951057
v -0.309017 3.442049 -0.951057
v -0.809017 3.442049 -0.587785
v -1.000000 3.442049 0.000000
v -0.809017 3.442049 0.587785
v -0.309017 3.442049 0.951057
v 0.309017 3.442049 0.951057
v 0.809017 3.442049 0.587785
v 1.000000 3.442049 0.000000
v 0.000000 -5.557603 0.000000
v -0.047666 -5.736747 1.951057
v 0.047666 -5.736747 1.951057
v 0.047666 -3.442049 1.074850
v -0.047666 -3.442049 1.074850
v -0.036843 1.147349 1.451057
v 0.036843 1.147349 1.451056
v 0.036843 3.442049 1.031063
v -0.036843 3.442049 1.031063
v 0.038443 -5.736747 -1.951057
v -0.038443 -5.736747 -1.951057
v -0.038443 -3.442049 -1.036796
v 0.038443 -3.442049 -1.036796
v 0.041533 1.147349 -1.451057
v -0.041533 1.147349 -1.451057
v -0.041533 3.442049 -1.028288
v 0.041533 3.442049 -1.028289
vt 0.459434 0.064598
vt 0.509434 0.064598
vt 0.559434 0.064598
vt 0.609434 0.064598
vt 0.659434 0.064598
vt 0.709434 0.064598
vt 0.759434 0.064598
vt 0.809434 0.064598
vt 0.859434 0.064598
vt 0.909434 0.064598
vt 0.959434 0.064598
vt 0.709434 0.564598
vt 0.881144 0.669312
vt 0.778427 0.594684
vt 0.651463 0.594684
vt 0.548746 0.669312
vt 0.509512 0.790062
vt 0.548746 0.910813
vt 0.651463 0.985441
vt 0.778428 0.985441
vt 0.881144 0.910813
vt 0.920378 0.790062
vt 0.014445 0.190091
vt 0.063055 0.190091
vt 0.111666 0.190091
vt 0.160277 0.190091
vt 0.208887 0.190091
vt 0.257498 0.190091
vt 0.306108 0.190091
vt 0.354719 0.190091
vt 0.403330 0.190091
vt 0.451940 0.190091
vt 0.500551 0.190091
vt 0.014445 0.336288
vt 0.063055 0.336288
vt 0.111666 0.336288
vt 0.160277 0.336288
vt 0.208887 0.336288
vt 0.257498 0.336288
vt 0.306108 0.336288
vt 0.354719 0.336288
vt 0.403330 0.336288
vt 0.451940 0.336288
vt 0.500551 0.336288
vt 0.014445 0.482485
vt 0.063055 0.482485
vt 0.111666 0.482485
vt 0.160277 0.482485
vt 0.208887 0.482485
vt 0.257498 0.482485
vt 0.306108 0.482485
vt 0.354719 0.482485
vt 0.403330 0.482485
vt 0.451940 0.482485
vt 0.500551 0.482485
vt 0.014445 0.628683
vt 0.063055 0.628683
vt 0.111666 0.628683
vt 0.160277 0.628683
vt 0.208887 0.628683
vt 0.257498 0.628683
vt 0.306108 0.628683
vt 0.354719 0.628683
vt 0.403330 0.628683
vt 0.451940 0.628683
vt 0.500551 0.628683
vt 0.014445 0.774880
vt 0.063055 0.774880
vt 0.111666 0.774880
vt 0.160277 0.774880
vt 0.208887 0.774880
vt 0.257498 0.774880
vt 0.306108 0.774880
vt 0.354719 0.774880
vt 0.403330 0.774880
vt 0.451940 0.774880
vt 0.500551 0.774880
vt 0.014445 0.921078
vt 0.063055 0.921078
vt 0.111666 0.921078
vt 0.160277 0.921078
vt 0.208887 0.921078
vt 0.257498 0.921078
vt 0.306108 0.921078
vt 0.354719 0.921078
vt 0.403330 0.921078
vt 0.451940 0.921078
vt 0.500551 0.921078
vt 0.714945 0.781845
vt 0.306108 0.190091
vt 0.354719 0.190091
vt 0.354719 0.336288
vt 0.306108 0.336288
vt 0.306108 0.628683
vt 0.354719 0.628683
vt 0.354719 0.774880
vt 0.306108 0.774880
vt 0.063055 0.190091
vt 0.111666 0.190091
vt 0.111666 0.336288
vt 0.063055 0.336288
vt 0.063055 0.628683
vt 0.111666 0.628683
vt 0.111666 0.774880
vt 0.063055 0.774880
vn 0.530824 0.429446 -0.730617
vn 0.530824 0.429446 -0.730617
vn 0.530824 0.429446 -0.730617
vn -0.000000 0.429446 -0.903093
vn -0.000000 0.429446 -0.903093
vn -0.000000 0.429446 -0.903093
vn -0.530825 0.429446 -0.730617
vn -0.530825 0.429446 -0.730617
vn -0.530825 0.429446 -0.730617
vn -0.858892 0.429446 -0.279071
vn -0.858892 0.429446 -0.279071
vn -0.858892 0.429446 -0.279071
vn -0.858892 0.429446 0.279071
vn -0.858892 0.429446 0.279071
vn -0.858892 0.429446 0.279071
vn -0.530824 0.429446 0.730617
vn -0.530824 0.429446 0.730617
vn -0.530824 0.429446 0.730617
vn 0.000000 0.429446 0.903093
vn 0.000000 0.429446 0.903093
vn 0.000000 0.429446 0.903093
vn 0.530825 0.429446 0.730617
vn 0.530825 0.429446 0.730617
vn 0.530825 0.429446 0.730617
vn 0.858892 0.429446 0.279071
vn 0.858892 0.429446 0.279071
vn 0.858892 0.429446 0.279071
vn 0.858892 0.429446 -0.279071
vn 0.858892 0.429446 -0.279071
vn 0.858892 0.429446 -0.279071
vn 0.587785 0.000000 -0.809017
vn 0.587785 0.000000 -0.809017
vn 0.587785 0.000000 -0.809017
vn 0.587785 0.000000 -0.809017
vn 0.587785 0.000000 -0.809017
vn 0.587785 0.000000 -0.809017
vn 0.000000 0.370128 -0.928981
vn -0.000000 0.370128 -0.928981
vn -0.000007 0.370128 -0.928981
vn -0.000007 0.370128 -0.928981
vn -0.000000 0.370128 -0.928981
vn -0.000007 0.370128 -0.928981
vn -0.587785 0.000000 -0.809017
vn -0.587785 0.000000 -0.809017
vn -0.587785 0.000000 -0.809017
vn -0.587785 0.000000 -0.809017
vn -0.587785 0.000000 -0.809017
vn -0.587785 0.000000 -0.809017
vn -0.951057 0.000000 -0.309017
vn -0.951057 0.000000 -0.309017
vn -0.951057 0.000000 -0.309017
vn -0.951057 0.000000 -0.309017
vn -0.951057 0.000000 -0.309017
vn -0.951057 0.000000 -0.309017
vn -0.951057 0.000000 0.309017
vn -0.951057 0.000000 0.309017
vn -0.951056 0.000000 0.309017
vn -0.951056 0.000000 0.309017
vn -0.951057 0.000000 0.309017
vn -0.951057 0.000000 0.309017
vn -0.587785 0.000000 0.809017
vn -0.587785 0.000000 0.809017
vn -0.587785 0.000000 0.809017
vn -0.587785 0.000000 0.809017
vn -0.587785 0.000000 0.809017
vn -0.587785 0.000000 0.809017
vn 0.000000 0.356719 0.934212
vn 0.000000 0.356719 0.934212
vn 0.000000 0.356719 0.934212
vn 0.000000 0.356719 0.934212
vn 0.000000 0.356719 0.934212
vn 0.000000 0.356719 0.934212
vn 0.587785 0.000000 0.809017
vn 0.587785 0.000000 0.809017
vn 0.587785 0.000000 0.809017
vn 0.587785 0.000000 0.809017
vn 0.587785 0.000000 0.809017
vn 0.587785 0.000000 0.809017
vn 0.951057 0.000000 0.309017
vn 0.951057 0.000000 0.309017
vn 0.951057 0.000000 0.309017
vn 0.951057 0.000000 0.309017
vn 0.951057 0.000000 0.309017
vn 0.951057 0.000000 0.309017
vn 0.951057 0.000000 -0.309017
vn 0.951057 0.000000 -0.309017
vn 0.951057 0.000000 -0.309017
vn 0.951057 0.000000 -0.309017
vn 0.951057 0.000000 -0.309017
vn 0.951057 0.000000 -0.309017
vn 0.587785 0.000000 -0.809017
vn 0.587785 0.000000 -0.809017
vn 0.587785 0.000000 -0.809017
vn 0.587785 0.000000 -0.809017
vn 0.587785 0.000000 -0.809017
vn 0.587785 0.000000 -0.809017
vn -0.000000 0.000000 -1.000000
vn -0.000000 0.000000 -1.000000
vn -0.000000 0.000000 -1.000000
vn -0.000000 0.000000 -1.000000
vn -0.000000 0.000000 -1.000000
vn -0.000000 0.000000 -1.000000
vn -0.587785 0.000000 -0.809017
vn -0.587785 0.000000 -0.809017
vn -0.587785 0.000000 -0.809017
vn -0.587785 0.000000 -0.809017
vn -0.587785 0.000000 -0.809017
vn -0.587785 0.000000 -0.809017
vn -0.951057 0.000000 -0.309017
vn -0.951057 0.000000 -0.309017
vn -0.951057 0.000000 -0.309017
vn -0.951057 0.000000 -0.309017
vn -0.951057 0.000000 -0.309017
vn -0.951057 0.000000 -0.309017
vn -0.951056 0.000000 0.309017
vn -0.951057 0.000000 0.309017
vn -0.951057 0.000000 0.309017
vn -0.951057 0.000000 0.309017
vn -0.951057 0.000000 0.309017
vn -0.951057 0.000000 0.309017
vn -0.587785 0.000000 0.809017
vn -0.587785 0.000000 0.809017
vn -0.587785 0.000000 0.809017
vn -0.587785 0.000000 0.809017
vn -0.587785 0.000000 0.809017
vn -0.587785 0.000000 0.809017
vn 0.000000 0.000000 1.000000
vn 0.000000 0.000000 1.000000
vn 0.000000 0.000000 1.000000
vn 0.000000 0.000000 1.000000
vn 0.000000 0.000000 1.000000
vn 0.000000 0.000000 1.000000
vn 0.587785 0.000000 0.809017
vn 0.587785 0.000000 0.809017
vn 0.587785 0.000000 0.809017
vn 0.587785 0.000000 0.809017
vn 0.587785 0.000000 0.809017
vn 0.587785 0.000000 0.809017
vn 0.951057 0.000000 0.309017
vn 0.951057 0.000000 0.309017
vn 0.951057 0.000000 0.309017
vn 0.951057 0.000000 0.309017
vn 0.951057 0.000000 0.309017
vn 0.951057 0.000000 0.309017
vn 0.951057 0.000000 -0.309017
vn 0.951057 0.000000 -0.309017
vn 0.951057 0.000000 -0.309017
vn 0.951057 0.000000 -0.309017
vn 0.951057 0.000000 -0.309017
vn 0.951057 0.000000 -0.309017
vn 0.587785 0.000000 -0.809017
vn 0.587785 0.000000 -0.809017
vn 0.587785 0.000000 -0.809017
vn 0.587785 0.000000 -0.809017
vn 0.587785 0.000000 -0.809017
vn 0.587785 0.000000 -0.809017
vn -0.000000 0.000000 -1.000000
vn -0.000000 0.000000 -1.000000
vn -0.000000 0.000000 -1.000000
vn -0.000000 0.000000 -1.000000
vn -0.000000 0.000000 -1.000000
vn -0.000000 0.000000 -1.000000
vn -0.587785 0.000000 -0.809017
vn -0.587785 0.000000 -0.809017
vn -0.587785 0.000000 -0.809017
vn -0.587785 0.000000 -0.809017
vn -0.587785 0.000000 -0.809017
vn -0.587785 0.000000 -0.809017
vn -0.951057 0.000000 -0.309017
vn -0.951057 0.000000 -0.309017
vn -0.951057 0.000000 -0.309017
vn -0.951057 0.000000 -0.309017
vn -0.951057 0.000000 -0.309017
vn -0.951057 0.000000 -0.309017
vn -0.951057 0.000000 0.309017
vn -0.951057 0.000000 0.309017
vn -0.951057 0.000000 0.309017
vn -0.951057 0.000000 0.309017
vn -0.951057 0.000000 0.309017
vn -0.951057 0.000000 0.309017
vn -0.587785 0.000000 0.809017
vn -0.587785 0.000000 0.809017
vn -0.587785 0.000000 0.809017
vn -0.587785 0.000000 0.809017
vn -0.587785 0.000000 0.809017
vn -0.587785 0.000000 0.809017
vn 0.000000 0.000000 1.000000
vn 0.000000 0.000000 1.000000
vn 0.000000 0.000000 1.000000
vn 0.000000 0.000000 1.000000
vn 0.000000 0.000000 1.000000
vn 0.000000 0.000000 1.000000
vn 0.587785 0.000000 0.809017
vn 0.587785 0.000000 0.809017
vn 0.587785 0.000000 0.809017
vn 0.587785 0.000000 0.809017
vn 0.587785 0.000000 0.809017
vn 0.587785 0.000000 0.809017
vn 0.951057 0.000000 0.309017
vn 0.951057 0.000000 0.309017
vn 0.951057 0.000000 0.309017
vn 0.951057 0.000000 0.309017
vn 0.951057 0.000000 0.309017
vn 0.951056 0.000000 0.309017
vn 0.951057 0.000000 -0.309017
vn 0.951057 0.000000 -0.309017
vn 0.951057 0.000000 -0.309017
vn 0.951057 0.000000 -0.309017
vn 0.951057 0.000000 -0.309017
vn 0.951057 0.000000 -0.309017
vn 0.587785 0.000000 -0.809017
vn 0.587785 0.000000 -0.809017
vn 0.587785 0.000000 -0.809017
vn 0.587785 0.000000 -0.809017
vn 0.587785 0.000000 -0.809017
vn 0.587785 0.000000 -0.809017
vn 0.000000 0.181187 -0.983449
vn -0.000000 0.181187 -0.983449
vn -0.000003 0.181187 -0.983449
vn -0.000003 0.181187 -0.983449
vn -0.000000 0.181187 -0.983449
vn -0.000004 0.181187 -0.983449
vn -0.587785 0.000000 -0.809017
vn -0.587785 0.000000 -0.809017
vn -0.587785 0.000000 -0.809017
vn -0.587785 0.000000 -0.809017
vn -0.587785 0.000000 -0.809017
vn -0.587785 0.000000 -0.809017
vn -0.951057 0.000000 -0.309017
vn -0.951057 0.000000 -0.309017
vn -0.951057 0.000000 -0.309017
vn -0.951057 0.000000 -0.309017
vn -0.951057 0.000000 -0.309017
vn -0.951057 0.000000 -0.309017
vn -0.951057 0.000000 0.309017
vn -0.951057 0.000000 0.309017
vn -0.951056 0.000000 0.309017
vn -0.951056 0.000000 0.309017
vn -0.951057 0.000000 0.309017
vn -0.951056 0.000000 0.309017
vn -0.587785 0.000000 0.809017
vn -0.587785 0.000000 0.809017
vn -0.587785 0.000000 0.809017
vn -0.587785 0.000000 0.809017
vn -0.587785 0.000000 0.809017
vn -0.587785 0.000000 0.809017
vn 0.000004 0.180037 0.983660
vn 0.000004 0.180037 0.983660
vn 0.000004 0.180037 0.983660
vn 0.000004 0.180037 0.983660
vn 0.000004 0.180037 0.983660
vn 0.000004 0.180037 0.983660
vn 0.587785 0.000000 0.809017
vn 0.587785 0.000000 0.809017
vn 0.587785 0.000000 0.809017
vn 0.587785 0.000000 0.809017
vn 0.587785 0.000000 0.809017
vn 0.587785 0.000000 0.809017
vn 0.951057 0.000000 0.309017
vn 0.951056 0.000000 0.309017
vn 0.951057 0.000000 0.309017
vn 0.951057 0.000000 0.309017
vn 0.951056 0.000000 0.309017
vn 0.951057 0.000000 0.309017
vn 0.951057 0.000000 -0.309017
vn 0.951057 0.000000 -0.309017
vn 0.951057 0.000000 -0.309017
vn 0.951057 0.000000 -0.309017
vn 0.951057 0.000000 -0.309017
vn 0.951057 0.000000 -0.309017
vn 0.587785 0.000000 -0.809017
vn 0.587785 0.000000 -0.809017
vn 0.587785 0.000000 -0.809017
vn 0.587785 0.000000 -0.809017
vn 0.587785 0.000000 -0.809017
vn 0.587785 0.000000 -0.809017
vn -0.000000 0.000000 -1.000000
vn -0.000000 0.000000 -1.000000
vn -0.000000 0.000000 -1.000000
vn -0.000000 0.000000 -1.000000
vn -0.000000 0.000000 -1.000000
vn -0.000000 0.000000 -1.000000
vn -0.587785 0.000000 -0.809017
vn -0.587785 0.000000 -0.809017
vn -0.587785 0.000000 -0.809017
vn -0.587785 0.000000 -0.809017
vn -0.587785 0.000000 -0.809017
vn -0.587785 0.000000 -0.809017
vn -0.951057 0.000000 -0.309017
vn -0.951057 0.000000 -0.309017
vn -0.951057 0.000000 -0.309017
vn -0.951057 0.000000 -0.309017
vn -0.951057 0.000000 -0.309017
vn -0.951057 0.000000 -0.309017
vn -0.951056 0.000000 0.309017
vn -0.951056 0.000000 0.309017
vn -0.951057 0.000000 0.309017
vn -0.951057 0.000000 0.309017
vn -0.951056 0.000000 0.309017
vn -0.951057 0.000000 0.309017
vn -0.587785 0.000000 0.809017
vn -0.587785 0.000000 0.809017
vn -0.587785 0.000000 0.809017
vn -0.587785 0.000000 0.809017
vn -0.587785 0.000000 0.809017
vn -0.587785 0.000000 0.809017
vn 0.000000 0.000000 1.000000
vn 0.000000 0.000000 1.000000
vn 0.000000 0.000000 1.000000
vn 0.000000 0.000000 1.000000
vn 0.000000 0.000000 1.000000
vn 0.000000 0.000000 1.000000
vn 0.587785 0.000000 0.809017
vn 0.587785 0.000000 0.809017
vn 0.587785 0.000000 0.809017
vn 0.587785 0.000000 0.809017
vn 0.587785 0.000000 0.809017
vn 0.587785 0.000000 0.809017
vn 0.951057 0.000000 0.309017
vn 0.951057 0.000000 0.309017
vn 0.951057 0.000000 0.309017
vn 0.951057 0.000000 0.309017
vn 0.951057 0.000000 0.309017
vn 0.951057 0.000000 0.309017
vn 0.951057 0.000000 -0.309017
vn 0.951057 0.000000 -0.309017
vn 0.951057 0.000000 -0.309017
vn 0.951057 0.000000 -0.309017
vn 0.951057 0.000000 -0.309017
vn 0.951057 0.000000 -0.309017
vn -0.035557 -0.993358 0.109434
vn -0.142659 -0.984330 0.103648
vn 0.000000 -1.000000 0.000000
vn 0.036150 -0.993134 0.111257
vn -0.035557 -0.993358 0.109434
vn 0.000000 -1.000000 0.000000
vn 0.142659 -0.984330 0.103647
vn 0.036150 -0.993134 0.111257
vn 0.000000 -1.000000 0.000000
vn 0.176336 -0.984330 0.000000
vn 0.142659 -0.984330 0.103647
vn 0.000000 -1.000000 0.000000
vn 0.142659 -0.984330 -0.103648
vn 0.176336 -0.984330 0.000000
vn 0.000000 -1.000000 0.000000
vn 0.035476 -0.993388 -0.109183
vn 0.142659 -0.984330 -0.103648
vn 0.000000 -1.000000 0.000000
vn -0.036184 -0.993121 -0.111364
vn 0.035476 -0.993388 -0.109183
vn 0.000000 -1.000000 0.000000
vn -0.142659 -0.984330 -0.103648
vn -0.036184 -0.993121 -0.111364
vn 0.000000 -1.000000 0.000000
vn -0.176336 -0.984330 0.000000
vn -0.142659 -0.984330 -0.103648
vn 0.000000 -1.000000 0.000000
vn -0.142659 -0.984330 0.103648
vn -0.176336 -0.984330 0.000000
vn 0.000000 -1.000000 0.000000
vn 0.035476 -0.993388 -0.109183
vn -0.036184 -0.993121 -0.111364
vn 0.000000 -1.000000 0.000000
vn 0.000000 -1.000000 0.000000
vn -0.036184 -0.993121 -0.111364
vn 0.000000 -1.000000 0.000000
vn 0.428075 0.000000 0.903743
vn 0.925596 0.085528 0.368723
vn 0.932774 0.087371 0.349713
vn 0.932774 0.087371 0.349713
vn 0.925596 0.085528 0.368723
vn 0.963025 0.096104 0.251688
vn 0.000000 1.000000 0.000000
vn 0.000000 1.000000 0.000000
vn 0.000000 1.000000 0.000000
vn 0.000000 1.000000 0.000000
vn 0.000000 1.000000 0.000000
vn 0.000000 1.000000 0.000004
vn -0.428075 0.000000 0.903743
vn -0.932774 0.087371 0.349713
vn -0.925596 0.085528 0.368723
vn -0.925596 0.085528 0.368723
vn -0.932774 0.087371 0.349713
vn -0.963025 0.096104 0.251688
vn 0.000000 -1.000000 -0.000001
vn 0.000000 -1.000000 0.000000
vn 0.000000 -1.000000 0.000000
vn 0.000000 -1.000000 0.000000
vn 0.000000 -1.000000 0.000000
vn 0.000000 -1.000000 0.000000
vn 0.282022 0.000000 0.959408
vn 0.745510 0.065299 0.663288
vn 0.790142 0.072498 0.608621
vn 0.790142 0.072498 0.608621
vn 0.745510 0.065299 0.663288
vn 0.874960 0.087173 0.476283
vn 0.000000 1.000000 0.000000
vn 0.000000 1.000000 0.000000
vn 0.000000 1.000000 0.000000
vn 0.000000 1.000000 0.000000
vn 0.000000 1.000000 0.000000
vn 0.000000 1.000000 0.000000
vn -0.282022 0.000000 0.959408
vn -0.790142 0.072498 0.608621
vn -0.745510 0.065299 0.663288
vn -0.745510 0.065299 0.663288
vn -0.790142 0.072498 0.608621
vn -0.874961 0.087173 0.476282
vn 0.000000 -1.000000 0.000000
vn 0.000000 -1.000000 0.000000
vn 0.036150 -0.993134 0.111257
vn -0.035557 -0.993358 0.109434
vn 0.036150 -0.993134 0.111257
vn 0.000000 -1.000000 0.000000
vn -0.302075 0.000000 -0.953284
vn -0.914859 0.093194 -0.392871
vn -0.928132 0.096000 -0.359659
vn -0.928132 0.096000 -0.359659
vn -0.914859 0.093194 -0.392871
vn -0.960105 0.103502 -0.259779
vn 0.000000 1.000000 0.000003
vn 0.000000 1.000000 0.000003
vn 0.000000 1.000000 0.000003
vn 0.000000 1.000000 0.000003
vn 0.000000 1.000000 0.000000
vn 0.000000 1.000000 0.000003
vn 0.302075 0.000000 -0.953284
vn 0.928132 0.096000 -0.359659
vn 0.914859 0.093194 -0.392872
vn 0.914859 0.093194 -0.392872
vn 0.928132 0.096000 -0.359659
vn 0.960105 0.103502 -0.259780
vn 0.000000 -1.000000 -0.000001
vn 0.000000 -1.000000 0.000000
vn 0.000000 -1.000000 0.000000
vn 0.000000 -1.000000 0.000000
vn 0.000000 -1.000000 0.000000
vn 0.000000 -1.000000 0.000000
vn -0.277403 0.000000 -0.960754
vn -0.748281 0.065004 -0.660189
vn -0.796288 0.072608 -0.600544
vn -0.796288 0.072608 -0.600544
vn -0.748281 0.065004 -0.660189
vn -0.878443 0.086580 -0.469939
vn 0.000000 1.000000 -0.000004
vn 0.000000 1.000000 -0.000003
vn 0.000000 1.000000 -0.000004
vn 0.000000 1.000000 -0.000003
vn 0.000000 1.000000 0.000000
vn 0.000000 1.000000 -0.000004
vn 0.277403 0.000000 -0.960754
vn 0.796288 0.072608 -0.600544
vn 0.748281 0.065004 -0.660189
vn 0.748281 0.065004 -0.660189
vn 0.796288 0.072608 -0.600544
vn 0.878443 0.086580 -0.469939
s off
g pCone1 polySurface1
usemtl initialShadingGroup1
f 1/1/1 2/2/2 11/12/3
f 2/2/4 3/3/5 11/12/6
f 3/3/7 4/4/8 11/12/9
f 4/4/10 5/5/11 11/12/12
f 5/5/13 6/6/14 11/12/15
f 6/6/16 7/7/17 11/12/18
f 7/7/19 8/8/20 11/12/21
f 8/8/22 9/9/23 11/12/24
f 9/9/25 10/10/26 11/12/27
f 10/10/28 1/11/29 11/12/30
g pCone1 pCylinder1 polySurface1
f 12/23/31 13/24/32 22/34/33
f 22/34/34 13/24/35 23/35/36
f 71/98/37 72/99/38 74/101/39
f 74/101/40 72/99/41 73/100/42
f 14/25/43 15/26/44 24/36/45
f 24/36/46 15/26/47 25/37/48
f 15/26/49 16/27/50 25/37/51
f 25/37/52 16/27/53 26/38/54
f 16/27/55 17/28/56 26/38/57
f 26/38/58 17/28/59 27/39/60
f 17/28/61 18/29/62 27/39/63
f 27/39/64 18/29/65 28/40/66
f 63/90/67 64/91/68 66/93/69
f 66/93/70 64/91/71 65/92/72
f 19/30/73 20/31/74 29/41/75
f 29/41/76 20/31/77 30/42/78
f 20/31/79 21/32/80 30/42/81
f 30/42/82 21/32/83 31/43/84
f 21/32/85 12/33/86 31/43/87
f 31/43/88 12/33/89 22/44/90
f 22/34/91 23/35/92 32/45/93
f 32/45/94 23/35/95 33/46/96
f 23/35/97 24/36/98 33/46/99
f 33/46/100 24/36/101 34/47/102
f 24/36/103 25/37/104 34/47/105
f 34/47/106 25/37/107 35/48/108
f 25/37/109 26/38/110 35/48/111
f 35/48/112 26/38/113 36/49/114
f 26/38/115 27/39/116 36/49/117
f 36/49/118 27/39/119 37/50/120
f 27/39/121 28/40/122 37/50/123
f 37/50/124 28/40/125 38/51/126
f 28/40/127 29/41/128 38/51/129
f 38/51/130 29/41/131 39/52/132
f 29/41/133 30/42/134 39/52/135
f 39/52/136 30/42/137 40/53/138
f 30/42/139 31/43/140 40/53/141
f 40/53/142 31/43/143 41/54/144
f 31/43/145 22/44/146 41/54/147
f 41/54/148 22/44/149 32/55/150
f 32/45/151 33/46/152 42/56/153
f 42/56/154 33/46/155 43/57/156
f 33/46/157 34/47/158 43/57/159
f 43/57/160 34/47/161 44/58/162
f 34/47/163 35/48/164 44/58/165
f 44/58/166 35/48/167 45/59/168
f 35/48/169 36/49/170 45/59/171
f 45/59/172 36/49/173 46/60/174
f 36/49/175 37/50/176 46/60/177
f 46/60/178 37/50/179 47/61/180
f 37/50/181 38/51/182 47/61/183
f 47/61/184 38/51/185 48/62/186
f 38/51/187 39/52/188 48/62/189
f 48/62/190 39/52/191 49/63/192
f 39/52/193 40/53/194 49/63/195
f 49/63/196 40/53/197 50/64/198
f 40/53/199 41/54/200 50/64/201
f 50/64/202 41/54/203 51/65/204
f 41/54/205 32/55/206 51/65/207
f 51/65/208 32/55/209 42/66/210
f 42/56/211 43/57/212 52/67/213
f 52/67/214 43/57/215 53/68/216
f 75/102/217 76/103/218 78/105/219
f 78/105/220 76/103/221 77/104/222
f 44/58/223 45/59/224 54/69/225
f 54/69/226 45/59/227 55/70/228
f 45/59/229 46/60/230 55/70/231
f 55/70/232 46/60/233 56/71/234
f 46/60/235 47/61/236 56/71/237
f 56/71/238 47/61/239 57/72/240
f 47/61/241 48/62/242 57/72/243
f 57/72/244 48/62/245 58/73/246
f 67/94/247 68/95/248 70/97/249
f 70/97/250 68/95/251 69/96/252
f 49/63/253 50/64/254 59/74/255
f 59/74/256 50/64/257 60/75/258
f 50/64/259 51/65/260 60/75/261
f 60/75/262 51/65/263 61/76/264
f 51/65/265 42/66/266 61/76/267
f 61/76/268 42/66/269 52/77/270
f 52/67/271 53/68/272 1/78/273
f 1/78/274 53/68/275 2/79/276
f 53/68/277 54/69/278 2/79/279
f 2/79/280 54/69/281 3/80/282
f 54/69/283 55/70/284 3/80/285
f 3/80/286 55/70/287 4/81/288
f 55/70/289 56/71/290 4/81/291
f 4/81/292 56/71/293 5/82/294
f 56/71/295 57/72/296 5/82/297
f 5/82/298 57/72/299 6/83/300
f 57/72/301 58/73/302 6/83/303
f 6/83/304 58/73/305 7/84/306
f 58/73/307 59/74/308 7/84/309
f 7/84/310 59/74/311 8/85/312
f 59/74/313 60/75/314 8/85/315
f 8/85/316 60/75/317 9/86/318
f 60/75/319 61/76/320 9/86/321
f 9/86/322 61/76/323 10/87/324
f 61/76/325 52/77/326 10/87/327
f 10/87/328 52/77/329 1/88/330
f 13/14/331 12/13/332 62/89/333
f 14/15/334 13/14/335 62/89/336
f 15/16/337 14/15/338 62/89/339
f 16/17/340 15/16/341 62/89/342
f 17/18/343 16/17/344 62/89/345
f 18/19/346 17/18/347 62/89/348
f 19/20/349 18/19/350 62/89/351
f 20/21/352 19/20/353 62/89/354
f 21/22/355 20/21/356 62/89/357
f 12/13/358 21/22/359 62/89/360
f 18/29/361 19/30/362 63/90/363
f 63/90/364 19/30/365 64/91/366
f 29/41/367 65/92/368 19/30/369
f 19/30/370 65/92/371 64/91/372
f 29/41/373 28/40/374 65/92/375
f 65/92/376 28/40/377 66/93/378
f 28/40/379 18/29/380 66/93/381
f 66/93/382 18/29/383 63/90/384
f 68/95/385 67/94/386 49/63/387
f 48/62/388 49/63/389 67/94/390
f 59/74/391 69/96/392 49/63/393
f 49/63/394 69/96/395 68/95/396
f 59/74/397 58/73/398 69/96/399
f 58/73/400 70/97/401 69/96/402
f 58/73/403 48/62/404 70/97/405
f 70/97/406 48/62/407 67/94/408
f 72/99/409 71/98/410 14/25/411
f 13/24/412 14/25/413 71/98/414
f 24/36/415 73/100/416 14/25/417
f 14/25/418 73/100/419 72/99/420
f 24/36/421 23/35/422 73/100/423
f 23/35/424 74/101/425 73/100/426
f 23/35/427 13/24/428 74/101/429
f 74/101/430 13/24/431 71/98/432
f 76/103/433 75/102/434 44/58/435
f 43/57/436 44/58/437 75/102/438
f 54/69/439 77/104/440 44/58/441
f 44/58/442 77/104/443 76/103/444
f 54/69/445 53/68/446 77/104/447
f 53/68/448 78/105/449 77/104/450
f 53/68/451 43/57/452 78/105/453
f 78/105/454 43/57/455 75/102/456
